sit_stand0002_filtered
version=1
nRows=52
nColumns=19
inDegrees=no
endheader
time	ground_force_r_vx	ground_force_r_vy	ground_force_r_vz	ground_force_r_px	ground_force_r_py	ground_force_r_pz	ground_torque_r_x	ground_torque_r_y	ground_torque_r_z	ground_force_l_vx	ground_force_l_vy	ground_force_l_vz	ground_force_l_px	ground_force_l_py	ground_force_l_pz	ground_torque_l_x	ground_torque_l_y	ground_torque_l_z
2.986666666666667	14.801025	29.144287	390.935898	-48.065758	17.02919	4.257202	-43.680264	-123.18718	0.0	9.002686	-26.092529	345.769882	53.192711	10.681152	-1.678467	-30.973594	154.078066	0.0
2.988333333333333	15.106201	29.449463	393.987656	-48.065758	17.02919	3.982544	-43.344384	-122.235454	0.0	8.69751	-26.092529	346.380234	52.8265	11.047363	-1.678467	-31.97347	152.749316	0.0
2.9899999999999998	13.580322	29.754639	394.598007	-48.615074	17.02919	4.623413	-43.265063	-123.44093	0.0	9.002686	-26.092529	343.938828	52.643394	10.925293	-1.678467	-31.848328	153.301209	0.0
2.9916666666666667	15.106201	29.754639	393.987656	-48.065758	16.785049	4.165649	-42.724718	-122.237913	0.0	8.392334	-25.482178	346.380234	51.910973	10.803223	-1.983643	-31.265838	150.100593	0.0
2.9933333333333336	13.580322	30.36499	396.429062	-48.248863	17.02919	4.440308	-43.065227	-121.951887	0.0	7.781982	-25.177002	346.380234	52.643394	11.169434	-1.800537	-32.317495	152.212298	0.0
2.9949999999999997	13.580322	29.754639	393.987656	-48.79818	17.15126	4.074097	-43.64192	-124.09691	0.0	9.002686	-26.092529	345.159531	53.192711	10.925293	-1.617432	-31.735692	154.350525	0.0
2.9966666666666666	13.885498	30.36499	395.81871	-48.615074	17.273331	4.440308	-43.750881	-123.065135	0.0	8.087158	-26.092529	343.328476	52.460289	11.047363	-1.556396	-32.252029	153.040416	0.0
2.9983333333333335	12.664795	30.975342	397.039413	-48.615074	17.517471	4.440308	-44.221509	-122.69165	0.0	9.002686	-26.092529	345.159531	52.643394	11.169434	-1.678467	-32.443019	152.759039	0.0
2.9999999999999996	12.664795	29.754639	397.039413	-48.981285	17.395401	4.257202	-43.914058	-123.604243	0.0	8.392334	-27.008057	345.769882	52.8265	11.047363	-1.495361	-32.027107	153.027355	0.0
3.0016666666666665	13.275146	30.36499	396.429062	-49.347496	16.785049	3.890991	-42.446934	-124.723209	0.0	7.781982	-24.871826	345.159531	51.910973	11.413574	-1.800537	-33.139117	150.62583	0.0
3.0033333333333334	12.664795	29.144287	397.649765	-48.79818	17.639542	4.165649	-44.460613	-122.949181	0.0	8.087158	-26.702881	345.159531	52.8265	11.291504	-1.617432	-32.788261	153.295149	0.0
3.0050000000000003	11.749268	28.533936	399.48082	-48.981285	17.15126	4.257202	-43.027258	-122.83914	0.0	7.781982	-27.008057	345.769882	52.460289	11.291504	-1.495361	-32.727581	151.968238	0.0
3.0066666666666664	12.054443	29.144287	398.260117	-49.896812	17.15126	4.440308	-43.161573	-125.519336	0.0	7.781982	-26.702881	345.159531	52.460289	11.169434	-1.922607	-32.43179	152.234158	0.0
3.0083333333333333	11.138916	29.144287	399.48082	-48.981285	17.761612	4.257202	-44.550269	-122.843991	0.0	7.171631	-26.702881	345.769882	52.643394	10.681152	-1.678467	-30.95678	152.494994	0.0
3.0100000000000002	11.138916	30.670166	400.701523	-48.79818	17.517471	4.623413	-43.805267	-122.024885	0.0	7.476807	-27.313232	344.549179	52.094078	10.925293	-1.556396	-31.777849	151.446588	0.0
3.0116666666666663	10.83374	29.754639	400.091171	-48.981285	17.517471	3.982544	-43.869672	-122.661432	0.0	6.561279	-26.092529	344.549179	53.192711	11.535645	-1.617432	-33.540862	154.623949	0.0
3.013333333333333	9.918213	29.754639	400.701523	-49.347496	17.761612	4.074097	-44.404878	-123.388518	0.0	6.866455	-26.702881	345.769882	52.277184	11.535645	-1.617432	-33.425252	151.435877	0.0
3.015	9.613037	29.449463	401.922226	-49.164391	17.639542	4.257202	-43.963886	-122.555782	0.0	5.950928	-26.702881	346.990585	53.009605	11.535645	-1.678467	-33.299286	153.013912	0.0
3.016666666666666	9.307861	29.144287	401.922226	-48.981285	17.883682	4.440308	-44.568908	-122.097797	0.0	6.561279	-27.008057	346.990585	53.192711	10.925293	-1.495361	-31.545885	153.544401	0.0
3.018333333333333	9.307861	28.839111	401.922226	-49.530602	17.395401	4.257202	-43.354043	-123.462109	0.0	4.119873	-26.092529	346.990585	53.009605	11.169434	-1.373291	-32.22714	153.008328	0.0
3.02	8.69751	28.839111	400.701523	-49.347496	18.005753	4.074097	-45.004489	-123.381264	0.0	4.425049	-25.482178	346.990585	53.192711	10.803223	-1.434326	-31.174541	153.530439	0.0
3.021666666666667	9.613037	29.144287	400.091171	-49.530602	17.883682	4.348755	-44.775304	-124.029567	0.0	4.425049	-26.702881	348.211288	53.192711	11.657715	-1.251221	-33.519202	153.003347	0.0
3.023333333333333	8.087158	30.059814	402.532578	-49.164391	17.761612	4.257202	-44.188445	-122.374767	0.0	3.509521	-26.092529	346.990585	52.460289	11.169434	-1.251221	-32.221555	151.42524	0.0
3.025	7.476807	28.533936	403.753281	-49.530602	17.761612	4.257202	-44.050047	-122.899798	0.0	3.204346	-25.787354	347.600937	53.009605	11.535645	-1.190186	-33.215728	152.736873	0.0
3.026666666666667	7.476807	29.144287	403.142929	-49.164391	17.517471	4.440308	-43.511144	-122.182284	0.0	4.425049	-26.092529	350.042343	52.8265	11.535645	-1.373291	-32.995134	151.151267	0.0
3.028333333333333	6.561279	28.839111	403.142929	-49.713707	17.639542	4.165649	-43.806731	-123.542465	0.0	2.89917	-25.482178	350.042343	53.009605	11.413574	-1.312256	-32.632564	151.668826	0.0
3.03	7.781982	29.449463	404.973984	-49.164391	18.005753	4.257202	-44.522515	-121.63224	0.0	1.678467	-26.702881	351.873398	53.558922	11.779785	-1.068115	-33.492484	152.451716	0.0
3.0316666666666667	6.866455	30.059814	403.142929	-49.164391	17.517471	4.074097	-43.506337	-122.189494	0.0	1.068115	-26.092529	352.483749	53.375816	12.023926	-1.00708	-34.121621	151.662765	0.0
3.0333333333333337	7.171631	29.144287	404.363632	-48.981285	18.005753	3.982544	-44.584926	-121.360613	0.0	1.983643	-26.702881	351.263046	53.558922	12.023926	-0.946045	-34.248476	152.716615	0.0
3.0349999999999997	6.256104	28.839111	404.973984	-49.164391	18.494034	4.440308	-45.716262	-121.627454	0.0	0.762939	-26.092529	350.652695	53.375816	12.512207	-0.88501	-35.689529	152.454725	0.0
3.0366666666666666	6.866455	28.22876	405.584335	-49.164391	17.639542	4.074097	-43.545426	-121.439643	0.0	1.068115	-26.702881	353.094101	53.742027	11.901855	-0.946045	-33.716923	152.44324	0.0
3.0383333333333336	4.425049	29.754639	406.194687	-49.347496	17.761612	4.257202	-43.761433	-121.719876	0.0	-1.068115	-26.092529	353.704453	53.009605	12.268066	-0.88501	-34.674924	150.103989	0.0
3.0399999999999996	4.730225	30.059814	401.922226	-49.347496	18.127823	4.348755	-45.140179	-123.016178	0.0	0.457764	-25.787354	354.925156	54.108238	12.390137	-0.88501	-34.913248	152.680395	0.0
3.0416666666666665	4.730225	28.839111	405.584335	-49.347496	18.249893	4.074097	-45.033573	-121.895882	0.0	-0.762939	-26.092529	354.314804	54.474449	12.268066	-0.88501	-34.617927	153.979716	0.0
3.0433333333333334	4.425049	29.754639	406.194687	-49.347496	17.761612	4.165649	-43.761433	-121.719876	0.0	-0.457764	-25.787354	356.75621	54.108238	12.878799	-0.88501	-36.095646	151.896762	0.0
3.0449999999999995	3.814697	29.754639	404.363632	-49.530602	18.005753	3.799438	-44.558568	-122.723877	0.0	-1.068115	-26.702881	355.535507	54.474449	12.268066	-0.823975	-34.496344	153.456489	0.0
3.0466666666666664	3.509521	30.36499	404.973984	-49.713707	18.127823	4.165649	-44.790447	-122.995841	0.0	-1.373291	-27.008057	354.925156	54.108238	12.634659	-0.762939	-35.585808	152.691315	0.0
3.0483333333333333	3.814697	30.975342	405.584335	-49.530602	18.371964	4.257202	-45.32738	-122.364066	0.0	-1.983643	-25.177002	357.366562	54.84066	12.634659	-0.762939	-35.337276	153.68141	0.0
3.0500000000000003	3.509521	30.975342	405.584335	-49.530602	17.883682	4.440308	-44.121095	-122.364066	0.0	-0.762939	-25.787354	359.197617	54.657555	12.878799	-0.701904	-35.847613	152.393632	0.0
3.0516666666666663	4.119873	31.891823	406.194687	-49.164391	18.005753	4.165649	-44.360091	-121.285799	0.0	-1.983643	-25.787354	359.807968	55.206871	12.512207	-0.518799	-34.757176	153.661816	0.0
3.0533333333333332	3.509521	29.754639	404.363632	-50.263023	18.249893	3.799438	-45.159936	-124.535172	0.0	-1.068115	-26.397705	357.976913	55.206871	12.878799	-0.701904	-35.967147	154.453211	0.0
3.055	2.593994	31.891823	404.973984	-49.530602	18.249893	4.074097	-45.084696	-122.55567	0.0	-1.068115	-25.482178	358.587265	54.84066	12.756729	-0.640869	-35.565507	153.16095	0.0
3.056666666666666	3.814697	31.280518	406.805038	-49.164391	18.127823	4.165649	-44.591224	-121.099056	0.0	-1.373291	-26.092529	357.976913	54.474449	12.756729	-0.762939	-35.62344	152.404501	0.0
3.058333333333333	2.89917	31.280518	406.805038	-49.164391	18.127823	3.616333	-44.584078	-121.099056	0.0	-1.983643	-26.702881	359.197617	55.389977	12.634659	-0.579834	-35.15714	154.440775	0.0
3.06	2.89917	31.586647	404.973984	-49.347496	18.127823	3.707886	-44.785661	-122.101136	0.0	-1.068115	-27.008057	359.807968	55.023766	12.878799	-0.518799	-35.784111	153.16369	0.0
3.061666666666667	3.204346	31.586647	406.194687	-49.347496	18.005753	3.707886	-44.352935	-121.734196	0.0	-0.152588	-26.702881	359.807968	55.206871	12.878799	-0.762939	-35.792189	153.669895	0.0
3.063333333333333	2.89917	31.586647	403.753281	-49.164391	17.883682	3.799438	-44.316388	-122.016787	0.0	-1.678467	-27.008057	361.028671	54.84066	13.00087	-0.457764	-35.995869	152.138639	0.0
3.065	3.509521	31.891823	405.584335	-49.347496	17.761612	3.341675	-43.820121	-121.919779	0.0	-2.89917	-27.313232	361.639023	55.023766	13.00087	-0.823975	-35.9244	152.390869	0.0
3.066666666666667	2.593994	33.112526	404.973984	-49.896812	18.249893	3.890991	-45.084696	-123.469523	0.0	-2.89917	-26.702881	362.249374	55.573082	12.756729	-0.640869	-35.189914	153.645161	0.0
3.068333333333333	1.983643	33.417702	405.584335	-49.530602	18.005753	3.890991	-44.410124	-122.383185	0.0	-1.068115	-27.618408	361.639023	55.573082	13.24501	-0.579834	-36.61557	153.912512	0.0
3.07	2.593994	32.80735	405.584335	-49.347496	18.494034	3.52478	-45.618798	-121.926946	0.0	-1.068115	-27.008057	361.639023	55.389977	12.634659	-0.457764	-34.927833	153.400832	0.0
3.0716666666666668	1.678467	33.417702	404.363632	-49.530602	18.127823	3.433228	-44.843677	-122.752638	0.0	-0.152588	-27.618408	361.028671	55.206871	12.878799	-0.701904	-35.67117	153.158361	0.0
